<svg width="7" height="10" viewBox="0 0 7 10" fill="none" xmlns="http://www.w3.org/2000/svg">
<path d="M2.08209 5L6.29104 1.12637C6.43035 0.998168 6.5 0.842491 6.5 0.659341C6.5 0.47619 6.43035 0.320513 6.29104 0.192308C6.15174 0.0641026 5.98259 0 5.78358 0C5.58458 0 5.41542 0.0641026 5.27612 0.192308L0.813433 4.29945C0.70398 4.40018 0.624378 4.51007 0.574626 4.62912C0.524875 4.74817 0.5 4.87179 0.5 5C0.5 5.1282 0.524875 5.25183 0.574626 5.37088C0.624378 5.48993 0.70398 5.59982 0.813433 5.70055L5.27612 9.80769C5.41542 9.9359 5.58458 10 5.78358 10C5.98259 10 6.15174 9.9359 6.29104 9.80769C6.43035 9.67949 6.5 9.52381 6.5 9.34066C6.5 9.15751 6.43035 9.00183 6.29104 8.87363L2.08209 5Z" fill="#454745"/>
</svg>
