<svg width="7" height="10" viewBox="0 0 7 10" fill="none" xmlns="http://www.w3.org/2000/svg">
<path d="M4.91791 5L0.708955 1.12637C0.569652 0.998168 0.5 0.842491 0.5 0.659341C0.5 0.47619 0.569652 0.320513 0.708955 0.192308C0.848259 0.0641026 1.01741 0 1.21642 0C1.41542 0 1.58458 0.0641026 1.72388 0.192308L6.18657 4.29945C6.29602 4.40018 6.37562 4.51007 6.42537 4.62912C6.47512 4.74817 6.5 4.87179 6.5 5C6.5 5.1282 6.47512 5.25183 6.42537 5.37088C6.37562 5.48993 6.29602 5.59982 6.18657 5.70055L1.72388 9.80769C1.58458 9.9359 1.41542 10 1.21642 10C1.01741 10 0.848259 9.9359 0.708955 9.80769C0.569652 9.67949 0.5 9.52381 0.5 9.34066C0.5 9.15751 0.569652 9.00183 0.708955 8.87363L4.91791 5Z" fill="#454745"/>
</svg>
